<?xml version="1.0" encoding="utf-8"?>
<!-- Generator: Adobe Illustrator 19.0.0, SVG Export Plug-In . SVG Version: 6.00 Build 0)  -->
<svg version="1.1" xmlns="http://www.w3.org/2000/svg" xmlns:xlink="http://www.w3.org/1999/xlink" x="0px" y="0px"
	 viewBox="-192.5 319.7 326.6 154.4" style="enable-background:new -192.5 319.7 326.6 154.4;" xml:space="preserve">
<style type="text/css">
	.st0{fill:#2B2868;}
	.st1{display:none;}
	.st2{display:inline;fill:none;}
	.st3{display:inline;fill:none;stroke:#2B2868;stroke-width:3;stroke-miterlimit:10;}
	.st4{display:inline;fill:none;stroke:url(#XMLID_2_);stroke-width:3;stroke-miterlimit:10;}
	.st5{display:inline;fill:none;stroke:url(#XMLID_3_);stroke-width:3;stroke-miterlimit:10;}
</style>
<g id="Layer_2">
	<path class="st0" d="M134.2,319.7L104.8,474h-297.2V319.7H134.2z"/>
</g>
<g id="Layer_1" class="st1">
	<rect id="XMLID_59_" x="366.1" y="367.6" class="st2" width="9.2" height="34.6"/>
	<path id="XMLID_53_" class="st3" d="M357.6,422.7"/>
	<path id="XMLID_64_" class="st3" d="M238.8,390.7c-5.2,0-9.5-4.3-9.5-9.5v-17.6c0-5.2,4.3-9.5,9.5-9.5h15.5v12h-7.7V360h-9.3v26.1
		h8.2c5.2,0,9.5,4.3,9.5,9.5v17.6c0,5.2-4.3,9.5-9.5,9.5h-16.2v-12h8.3v6.2h9.4v-26.1H238.8z M262.1,414.9c0,4.3,3.5,7.8,7.8,7.8h17
		v-12.9h-8.4v8.3h-9.2v-64h-7.2V414.9z M318.4,361.8v53c0,4.3-3.5,7.8-7.8,7.8h-9.3c-4.3,0-7.8-3.5-7.8-7.8v-53
		c0-4.3,3.5-7.8,7.8-7.8h9.3C314.9,354.1,318.4,357.6,318.4,361.8z M310.4,359.3h-8.9v57.4h8.9V359.3z M350.8,375.6v-13.8
		c0-4.3-3.5-7.8-7.8-7.8h-9.3c-4.3,0-7.8,3.5-7.8,7.8v53c0,4.3,3.5,7.8,7.8,7.8h9.3c4.3,0,7.8-3.5,7.8-7.8v-13.6h-7.1v15.5h-9.6V360
		h9.6v15.5L350.8,375.6z M415.5,361.8v31.1c0,4.3-3.5,7.8-7.8,7.8h-9.2v21.9h-7.8v-29.7v-31.1c0-4.3,3.5-7.8,7.8-7.8h9.2
		C412,354.1,415.5,357.6,415.5,361.8z M409,363.9c0-2.7-2.2-4.9-4.9-4.9h-5.6v37.2h5.6c2.7,0,4.9-2.2,4.9-4.9V363.9z M357.6,422.7
		v8.3h-10.9h-11.3c-4.8,0-8.7,3.9-8.7,8.7h20h10.7c4.8,0,8.7-3.9,8.7-8.7v-8.3H357.6 M406,431h-11.3h-10.9v-8.3h-8.5v8.3
		c0,4.8,3.9,8.7,8.7,8.7h10.7h20C414.7,434.8,410.8,431,406,431z"/>
	
		<linearGradient id="XMLID_2_" gradientUnits="userSpaceOnUse" x1="370.6683" y1="442.8166" x2="370.6683" y2="371.2213" gradientTransform="matrix(1 0 0 -1 0 795.4)">
		<stop  offset="0" style="stop-color:#F8F4AC"/>
		<stop  offset="0.148" style="stop-color:#FCE78E"/>
		<stop  offset="0.3061" style="stop-color:#F6CD7D"/>
		<stop  offset="1" style="stop-color:#9C8455"/>
	</linearGradient>
	<path id="XMLID_54_" class="st4" d="M384.9,367.8v-7c0,0-0.6-1.5-2.2-1.5v-3.8c0,0-0.1-1.4-1.4-1.4h-10.7H360
		c-1.3,0-1.4,1.4-1.4,1.4v3.8c-1.6,0-2.2,1.5-2.2,1.5v7h1.1v54.9h8.6v-14.1h4.6h4.6v14.1h8.5v-54.9H384.9z"/>
	
		<linearGradient id="XMLID_3_" gradientUnits="userSpaceOnUse" x1="370.7035" y1="429.3224" x2="370.7035" y2="391.7437" gradientTransform="matrix(1 0 0 -1 0 795.4)">
		<stop  offset="0" style="stop-color:#F8F4AC"/>
		<stop  offset="0.148" style="stop-color:#FCE78E"/>
		<stop  offset="0.3061" style="stop-color:#F6CD7D"/>
		<stop  offset="1" style="stop-color:#9C8455"/>
	</linearGradient>
	<path id="XMLID_56_" class="st5" d="M375.3,402.2h-9.2v-34.6h9.2V402.2z"/>
</g>
</svg>
